<svg xmlns="http://www.w3.org/2000/svg" xmlns:xlink="http://www.w3.org/1999/xlink" width="500" zoomAndPan="magnify" viewBox="0 0 375 374.999991" height="500" preserveAspectRatio="xMidYMid meet" version="1.0"><defs><filter x="0%" y="0%" width="100%" height="100%" id="4adc98876d"><feColorMatrix values="0 0 0 0 1 0 0 0 0 1 0 0 0 0 1 0 0 0 1 0" color-interpolation-filters="sRGB"/></filter><mask id="ca6b0c905a"><g filter="url(#4adc98876d)"><rect x="-37.5" width="450" fill="#000000" y="-37.499999" height="449.999989" fill-opacity="0.4"/></g></mask><clipPath id="b57568dd17"><path d="M 58.117188 58.117188 L 316.867188 58.117188 L 316.867188 316.867188 L 58.117188 316.867188 Z M 58.117188 58.117188 " clip-rule="nonzero"/></clipPath><clipPath id="115f78b14e"><path d="M 187.496094 58.117188 C 116.042969 58.117188 58.117188 116.042969 58.117188 187.496094 C 58.117188 258.953125 116.042969 316.878906 187.496094 316.878906 C 258.953125 316.878906 316.878906 258.953125 316.878906 187.496094 C 316.878906 116.042969 258.953125 58.117188 187.496094 58.117188 Z M 187.496094 58.117188 " clip-rule="nonzero"/></clipPath><clipPath id="8ca19daed6"><rect x="0" width="375" y="0" height="375"/></clipPath><mask id="df48a3527e"><g filter="url(#4adc98876d)"><rect x="-37.5" width="450" fill="#000000" y="-37.499999" height="449.999989" fill-opacity="0.7"/></g></mask><clipPath id="bacf89dd9f"><path d="M 93.78125 93.78125 L 281.210938 93.78125 L 281.210938 281.210938 L 93.78125 281.210938 Z M 93.78125 93.78125 " clip-rule="nonzero"/></clipPath><clipPath id="91b84d8e69"><path d="M 187.496094 93.78125 C 135.738281 93.78125 93.78125 135.738281 93.78125 187.496094 C 93.78125 239.253906 135.738281 281.210938 187.496094 281.210938 C 239.253906 281.210938 281.210938 239.253906 281.210938 187.496094 C 281.210938 135.738281 239.253906 93.78125 187.496094 93.78125 Z M 187.496094 93.78125 " clip-rule="nonzero"/></clipPath><clipPath id="82e9d4c152"><rect x="0" width="375" y="0" height="375"/></clipPath></defs><g mask="url(#ca6b0c905a)"><g transform="matrix(1, 0, 0, 1, 0, 0)"><g clip-path="url(#8ca19daed6)"><g clip-path="url(#b57568dd17)"><g clip-path="url(#115f78b14e)"><path stroke-linecap="butt" transform="matrix(0.75, 0, 0, 0.75, 58.116639, 58.116635)" fill="none" stroke-linejoin="miter" d="M 172.505951 0.000737222 C 77.235111 0.000737222 0.000731222 77.235117 0.000731222 172.505957 C 0.000731222 267.782005 77.235111 345.016385 172.505951 345.016385 C 267.781999 345.016385 345.016379 267.782005 345.016379 172.505957 C 345.016379 77.235117 267.781999 0.000737222 172.505951 0.000737222 Z M 172.505951 0.000737222 " stroke="#8c52ff" stroke-width="96" stroke-opacity="1" stroke-miterlimit="4"/></g></g></g></g></g><g mask="url(#df48a3527e)"><g transform="matrix(1, 0, 0, 1, 0, 0)"><g clip-path="url(#82e9d4c152)"><g clip-path="url(#bacf89dd9f)"><g clip-path="url(#91b84d8e69)"><path stroke-linecap="butt" transform="matrix(0.75, 0, 0, 0.75, 93.781273, 93.781268)" fill="none" stroke-linejoin="miter" d="M 124.953103 -0.0000243223 C 55.942682 -0.0000243223 -0.0000303223 55.942688 -0.0000303223 124.953109 C -0.0000303223 193.96353 55.942682 249.906242 124.953103 249.906242 C 193.963524 249.906242 249.906236 193.96353 249.906236 124.953109 C 249.906236 55.942688 193.963524 -0.0000243223 124.953103 -0.0000243223 Z M 124.953103 -0.0000243223 " stroke="#8c52ff" stroke-width="96" stroke-opacity="1" stroke-miterlimit="4"/></g></g></g></g></g></svg>